# xmcd
#
# Track frame offsets: 
#        150
#        18836
#        39510
#        62060
#        80682
#        111660
#        137404
#        151531
#        169528
#        180958
#        200869
#        220147
#
# Disc length: 3154 seconds
#
# Revision: 0
# Processed by: cddbd v1.5.2PL0 Copyright (c) Steve Scherf et al.
# Submitted via: ExactAudioCopy v0.99pb4
#
DISCID=990c500c
DTITLE=J. Sintoni - The Red Suit
DYEAR=2007
DGENRE=Blues
TTITLE0=Tired of Keep Movin
TTITLE1=Won't Be Back
TTITLE2=Forget The Time
TTITLE3=Changed and Better
TTITLE4=The Red Suit
TTITLE5=A Place To Feel Free
TTITLE6=Voodoo Woman
TTITLE7=Special Light
TTITLE8=Relaxin'
TTITLE9=What We Steal
TTITLE10=Out Of The Rain
TTITLE11=Swing Out This
EXTD=
EXTT0=
EXTT1=
EXTT2=
EXTT3=
EXTT4=
EXTT5=
EXTT6=
EXTT7=
EXTT8=
EXTT9=
EXTT10=
EXTT11=
PLAYORDER=
